<?xml version="1.0" encoding="utf-8"?>
<!-- Generator: Adobe Illustrator 23.0.1, SVG Export Plug-In . SVG Version: 6.00 Build 0)  -->
<svg version="1.1" id="Layer_1" xmlns="http://www.w3.org/2000/svg" xmlns:xlink="http://www.w3.org/1999/xlink" x="0px" y="0px"
	 viewBox="0 0 306 344.4" style="enable-background:new 0 0 306 344.4;" xml:space="preserve">
<style type="text/css">
	.st0{fill:#FFFFFF;}
	.st1{fill-rule:evenodd;clip-rule:evenodd;fill:#0074BD;}
	.st2{fill-rule:evenodd;clip-rule:evenodd;fill:#EA2D2E;}
</style>
<path class="st0" d="M3.9,258.3c-2.4-4.2-3.9-8.8-3.9-13.1V99.1c0-8.4,6-18.7,13.3-23l126.5-73c7.3-4.2,19.2-4.2,26.5,0l126.5,73
	c3.6,2.1,7,5.7,9.4,9.9c2.4,4.2,3.9,8.8,3.9,13.1v146.1c0,4.2-1.5,8.9-3.9,13.1c-2.4,4.2-5.7,7.8-9.4,9.9l-126.5,73
	c-7.3,4.2-19.2,4.2-26.5,0l-126.5-73C9.6,266.1,6.3,262.4,3.9,258.3z"/>
<g>
	<path class="st1" d="M121.1,226.2c0,0-9.1,5.3,6.5,7.1c18.9,2.2,28.6,1.9,49.5-2.1c0,0,5.5,3.4,13.2,6.4
		C143.5,257.7,84.4,236.5,121.1,226.2L121.1,226.2z"/>
	<path class="st1" d="M115.4,200c0,0-10.2,7.6,5.4,9.2c20.2,2.1,36.2,2.3,63.9-3.1c0,0,3.8,3.9,9.8,6
		C137.9,228.7,74.9,213.5,115.4,200L115.4,200z"/>
	<path class="st2" d="M163.6,155.6c11.5,13.3-3,25.2-3,25.2s29.3-15.1,15.8-34c-12.6-17.6-22.2-26.4,29.9-56.6
		C206.3,90.2,124.5,110.6,163.6,155.6L163.6,155.6z"/>
	<path class="st1" d="M225.5,245.5c0,0,6.8,5.6-7.4,9.9c-27,8.2-112.4,10.6-136.1,0.3c-8.5-3.7,7.5-8.9,12.5-9.9
		c5.2-1.1,8.2-0.9,8.2-0.9c-9.5-6.7-61.3,13.1-26.3,18.8C171.7,279.1,250.2,256.7,225.5,245.5L225.5,245.5z"/>
	<path class="st1" d="M125.5,172.9c0,0-43.4,10.3-15.4,14.1c11.9,1.6,35.5,1.2,57.5-0.6c18-1.5,36-4.7,36-4.7s-6.3,2.7-10.9,5.8
		c-44.1,11.6-129.3,6.2-104.8-5.7C108.6,171.8,125.5,172.9,125.5,172.9L125.5,172.9z"/>
	<path class="st1" d="M203.4,216.5c44.8-23.3,24.1-45.7,9.6-42.7c-3.5,0.7-5.1,1.4-5.1,1.4s1.3-2.1,3.8-3
		c28.6-10.1,50.7,29.7-9.2,45.4C202.5,217.6,203.2,217,203.4,216.5L203.4,216.5z"/>
	<path class="st2" d="M176.4,41.3c0,0,24.8,24.8-23.6,63c-38.8,30.7-8.8,48.1,0,68.1c-22.7-20.4-39.3-38.4-28.1-55.2
		C141.1,92.7,186.4,80.8,176.4,41.3L176.4,41.3z"/>
	<path class="st1" d="M129.9,279.6c43,2.8,109.1-1.5,110.7-21.9c0,0-3,7.7-35.6,13.8c-36.7,6.9-82.1,6.1-108.9,1.7
		C96.1,273.2,101.6,277.8,129.9,279.6L129.9,279.6z"/>
</g>
</svg>
