<svg xmlns="http://www.w3.org/2000/svg" width="400" height="400" viewBox="0 0 400 400"><defs><style>.a{fill:#f44336;}.b{fill:#fff;}</style></defs><title>mail_icon</title><path class="a" d="M350,400H50A50.01823,50.01823,0,0,1,0,350V50A50.01824,50.01824,0,0,1,50,0H350a50.01823,50.01823,0,0,1,50,50V350A50.01823,50.01823,0,0,1,350,400Z"/><path class="b" d="M315.86806,84.13194H84.13194a28.86717,28.86717,0,0,0-28.967,28.967V286.901a28.96732,28.96732,0,0,0,28.967,28.967H315.86806a28.96732,28.96732,0,0,0,28.967-28.967V113.099A28.95933,28.95933,0,0,0,315.86806,84.13194Zm0,57.934L200,214.48351,84.13194,142.066V113.099L200,185.51649,315.86806,113.099Z"/></svg>